<svg xmlns="http://www.w3.org/2000/svg" xmlns:xlink="http://www.w3.org/1999/xlink" width="176.31" height="33.572" viewBox="0 0 176.31 33.572">
  <defs>
    <clipPath id="clip-path">
      <rect id="Rectangle_40" data-name="Rectangle 40" width="33.572" height="33.572" fill="#2823b4"/>
    </clipPath>
  </defs>
  <g id="Group_2587" data-name="Group 2587" transform="translate(-160 -97.428)">
    <g id="Group_55" data-name="Group 55" transform="translate(160 97.428)">
      <g id="Group_41" data-name="Group 41" transform="translate(0 0)" clip-path="url(#clip-path)">
        <path id="Path_48" data-name="Path 48" d="M6.484,14.049V9.1A2.619,2.619,0,0,1,9.1,6.484h4.949V0H9.1A9.11,9.11,0,0,0,0,9.1v4.949Z" transform="translate(0.073 0.39)" fill="#2823b4" opacity="0.5"/>
        <path id="Path_49" data-name="Path 49" d="M87,6.484h4.949A2.619,2.619,0,0,1,94.565,9.1v4.949h6.484V9.1a9.11,9.11,0,0,0-9.1-9.1H87Z" transform="translate(-68.123 0.39)" fill="#2823b4"/>
        <path id="Path_50" data-name="Path 50" d="M14.049,94.565H9.1a2.619,2.619,0,0,1-2.616-2.616V87H0v4.949a9.11,9.11,0,0,0,9.1,9.1h4.949Z" transform="translate(0.073 -67.807)" fill="#2823b4"/>
        <path id="Path_51" data-name="Path 51" d="M94.565,87v4.949a2.619,2.619,0,0,1-2.616,2.616H87v6.484h4.949a9.11,9.11,0,0,0,9.1-9.1V87Z" transform="translate(-68.123 -67.807)" fill="#2823b4"/>
      </g>
    </g>
    <path id="Path_74" data-name="Path 74" d="M6.584-7.267h11.08L20.526.766a1,1,0,0,0,1.062.785h1.477A.776.776,0,0,0,23.9.72a7.339,7.339,0,0,0-.554-1.847L13.6-27.211c-.185-.508-.415-.831-.923-.831H11.57c-.508,0-.739.323-.923.831L.906-1.127A7.34,7.34,0,0,0,.352.72a.776.776,0,0,0,.831.831H2.66A.969.969,0,0,0,3.722.766Zm10.11-2.678H7.554l3.185-8.864c.369-1.108,1.154-3.185,1.154-3.462s.046-.415.231-.415.231.138.231.415a32.613,32.613,0,0,0,1.154,3.462Zm11.218,11.5H29.3a.849.849,0,0,0,.877-.877v-31.3A.849.849,0,0,0,29.3-31.5H27.913a.849.849,0,0,0-.877.877V.673A.849.849,0,0,0,27.913,1.551Zm8.679,0h1.385a.849.849,0,0,0,.877-.877v-31.3a.849.849,0,0,0-.877-.877H36.592a.849.849,0,0,0-.877.877V.673A.849.849,0,0,0,36.592,1.551Zm26.868.462c3.693,0,6.094-.923,7.017-1.57.646-.462,1.154-.923,1.154-1.57V-2.143a.731.731,0,0,0-.739-.831,1.4,1.4,0,0,0-.739.231A12.118,12.118,0,0,1,63.876-.989c-5.448,0-9.187-4.016-9.187-12.234S58.428-25.5,63.876-25.5a12.276,12.276,0,0,1,6.279,1.754,1.248,1.248,0,0,0,.739.231.755.755,0,0,0,.739-.831v-.969a2.037,2.037,0,0,0-1.154-1.616A13.992,13.992,0,0,0,63.46-28.5c-7.11,0-12.234,5.4-12.234,15.281S56.351,2.012,63.46,2.012Zm12.926-.462h1.385a.849.849,0,0,0,.877-.877v-31.3a.849.849,0,0,0-.877-.877H76.387a.849.849,0,0,0-.877.877V.673A.849.849,0,0,0,76.387,1.551Zm10.064-13.2c.554-3.832,2.216-6.74,6.556-6.74a4.991,4.991,0,0,1,5.217,5.217,8.965,8.965,0,0,1-.092,1.523ZM93.33,2.012A12,12,0,0,0,100.3.027a1.491,1.491,0,0,0,.877-1.431V-2.1c0-.462-.231-.739-.646-.739a1.531,1.531,0,0,0-.692.231A11.457,11.457,0,0,1,93.884-.712c-4.986,0-7.617-3.185-7.617-8.494h14.727a14.686,14.686,0,0,0,.323-3.093c0-5.54-3-8.771-8.448-8.771-6.325,0-9.741,4.8-9.741,11.541S86.4,2.012,93.33,2.012ZM112.488-.712c-2.585,0-4.617-.831-4.617-4.2,0-2.908,1.847-4.894,6.463-4.894a20.989,20.989,0,0,1,3.878.415V-3.62A7.057,7.057,0,0,1,112.488-.712ZM111.8,1.874A7.875,7.875,0,0,0,118.213-.9v.369c0,1.754.877,2.354,2.031,2.354,1.616,0,2.262-.785,2.262-1.431V-.158c-.785,0-1.154-.415-1.154-1.477V-13.453c0-4.432-.646-7.617-6.786-7.617a19.44,19.44,0,0,0-7.34,1.385c-.785.415-1.108.831-1.108,1.339v1.293a.668.668,0,0,0,.692.739,1.225,1.225,0,0,0,.646-.231,14.922,14.922,0,0,1,6.786-1.8c3.739,0,3.97,2.077,3.97,6.279v.231a25.311,25.311,0,0,0-4.293-.415c-6.925,0-9.187,3.97-9.187,7.386C104.733.166,108.1,1.874,111.8,1.874Zm15.65-.323h1.385a.849.849,0,0,0,.877-.877v-16.25a8.325,8.325,0,0,1,4.57-2.124,3.684,3.684,0,0,1,2.4.923.928.928,0,0,0,.6.185.68.68,0,0,0,.739-.739v-1.616c0-1.016-1.385-1.662-2.678-1.662a9.373,9.373,0,0,0-5.632,2.354v-1.477a.849.849,0,0,0-.877-.877h-1.385a.849.849,0,0,0-.877.877V.673A.849.849,0,0,0,127.446,1.551Z" transform="translate(198.292 128.932)" fill="#2823b4"/>
  </g>
</svg>
