<svg id="Component_14_18" data-name="Component 14 – 18" xmlns="http://www.w3.org/2000/svg" xmlns:xlink="http://www.w3.org/1999/xlink" width="115.908" height="30.636" viewBox="0 0 115.908 30.636">
  <defs>
    <clipPath id="clip-path">
      <rect id="Rectangle_1937" data-name="Rectangle 1937" width="114.718" height="16.781" fill="#706eaf"/>
    </clipPath>
  </defs>
  <g id="Group_2503" data-name="Group 2503" transform="translate(2.045 0) rotate(7)">
    <g id="Group_2502" data-name="Group 2502" transform="translate(0 0)" clip-path="url(#clip-path)">
      <path id="Path_6884" data-name="Path 6884" d="M.155,15.085c7.562-2.511,15.133-5.018,22.722-5.4a33.226,33.226,0,0,1,11.292,1.261c3.736,1.114,7.449,3.773,11.192,4.374,3.762.6,7.366-2.656,11.022-5.936C60,6.133,63.618,4.372,67.321,4.161c3.744-.213,7.485.679,11.228.935A32.814,32.814,0,0,0,89.7,3.6c7.423-2.1,14.883-5.321,22.32-2.47A18.506,18.506,0,0,1,114.6,2.37c.2.118.118,1.427-.086,1.31-7.426-4.264-14.927-1.707-22.365.55A43.143,43.143,0,0,1,81.015,6.514c-3.745.1-7.485-.8-11.229-.992A15.818,15.818,0,0,0,58.5,8.95c-3.512,2.793-6.984,6.944-10.571,7.693-3.742.782-7.459-1.962-11.172-3.442a31.558,31.558,0,0,0-11.283-2.208c-8.457-.143-16.9,2.653-25.322,5.45-.207.069-.206-1.29,0-1.359" transform="translate(0 0)" fill="#706eaf"/>
    </g>
  </g>
</svg>
