<svg xmlns="http://www.w3.org/2000/svg" width="627.155" height="162.984" viewBox="0 0 627.155 162.984">
  <g id="Component_15_14" data-name="Component 15 – 14" transform="translate(1 1.027)">
    <circle id="Ellipse_16" data-name="Ellipse 16" cx="39" cy="39" r="39" transform="translate(64.154 2.235)" fill="#ebebf6"/>
    <g id="Group_2478" data-name="Group 2478" transform="translate(-153.691 -948.693)">
      <g id="Group_2479" data-name="Group 2479" transform="translate(153.691 948.693)">
        <path id="Path_6750" data-name="Path 6750" d="M629.062,77.238,211.63,77.1a4.366,4.366,0,0,0-2.7.958,11.23,11.23,0,0,1-12.446,1.389c-5.4-2.818-8.481-8.748-7.426-13.866,1.276-6.195,7.68-9.871,11.243-10.494,4.625-.809,14.929,1.367,16.723,11.834,1.45,8.465-5.164,14.883-8.914,15.748-7.183,1.656-8.931,14.343-9.879,14.758s-4.883-.115-5.745-1.293.475-7.719-.617-8.451-6.21,3.777-7.477,3.66-3.866-2.528-3.779-4.121,4.269-5.765,3.378-7.269-7.339-.335-8.244-.717-1.522-4.173-1.194-5.247,6.789-3.365,6.8-4.971-6.255-3.7-6.839-4.6.936-5,1.661-5.527,7.575.372,8.294-.641-3.735-5.962-3.854-7.266,3.307-4.227,4.442-4.292,6.265,4.668,7.431,3.885-.2-7.5.234-8.239,4.53-2.27,5.972-1.725,2.158,7.324,4.258,7.249,3.908-6.544,4.946-7.026,5.383.514,5.551,1.5-1.73,7.525.436,8.584,6.712-4.422,7.93-3.992,4.3,2.628,3.689,4.188c-.8,2.045-4.33,6.157-3.492,7.492s6.76-.076,8.058.367,1.884,3.908,1.5,5.374-6.909,3.106-7.226,5.145,6.141,2.881,6.924,4.047-.243,5.4-1.553,5.865c-2.816,1-7.205-1.2-8.294.641s4.007,5.764,4,7.369-2.993,4.276-4.9,4.14S214.952,87,213.46,87.816s-.039,6.984-.222,8.16-4.79,2.39-5.972,1.725c-.9-.505-1.28-2.55-2.3-4.557a1.065,1.065,0,0,0-1.934.08,47.328,47.328,0,0,1-4.445,8.349,50.155,50.155,0,0,1-7.956,8.781.842.842,0,0,0,.289,1.431c2.984.988,6.763-2.912,8.368-2.789,2.14.165,4.779,4.363,4.089,6.181-.849,2.237-7.464,5.022-7.027,7.1s8.355,2.561,9.7,3.2,1.14,6.6-.083,7.778-8.08-.175-8.942,1.893c-1.1,2.639,4.25,6.714,5.357,8.836.6,1.148-1.9,5.811-3.618,6.419s-9.08-3.348-10.35-2.3,2.29,8.8,1.695,10.279-4.421,3.723-6.3,3.046-5.372-7.191-7.5-6.664-3.044,8.675-3.827,9.622-5.549.322-6.718-.457-1.589-9.347-3.511-9.935-6.688,6.163-7.97,6.541-5.651-2.92-6.026-3.98,3.172-8.944,2.217-10.171-8.49,2.329-10.1,2-3.875-5.485-3.544-6.868,7.849-5.828,7.331-7.508-9.064-2.459-9.79-3.246-1.089-6.246.083-7.778,9.555.051,10.22-2.494-6.436-7.039-6.639-8.457,2.554-6.267,3.8-6.111,8.4,4.782,10.444,2.568-2.883-9.635-1.929-10.941,4.7-4.205,6.347-2.913c2.163,1.694,5.82,7.405,7.722,6.883s2.343-8.129,3.34-9.525,5.361-.851,6.979.142,1.235,9.4,3.565,10.512,5.663-6.322,7.343-6.841a5.539,5.539,0,0,1,6.47,3.972c.7,2.792-5.751,9.989-8.758,13.155a2.374,2.374,0,0,1-3.039.352,17.67,17.67,0,0,0-7.741-2.8c-13.183-1.675-19.507,9.947-20.2,15.781-.536,4.494,1.566,13.491,8.53,17.251,7.14,3.854,16.679,1.451,21.005-4.829,4.342-6.3,2.8-16.947-4.2-21.429a13.59,13.59,0,0,0-10.882-1.832,2.422,2.422,0,0,1-2.84-1.414,76,76,0,0,0-7.286-13.561c-5.773-8.339-13.926-15.967-14.927-13.013-1.234,3.642,1.482,9.372,1.684,12.775.142,2.389-8.814,5.249-10.3,3.763s-5.843-11.785-8.814-11.389-3.565,10.5-6.14,12.676-9.606,1.485-11.29-.792,1.486-13.172-1.981-14.657-7.23,7.23-12.478,7.725a7.809,7.809,0,0,1-8.319-6.734c-.1-2.476,8.22-10.4,5.645-12.974s-13.568,1.882-15.647.2-4.853-7.229-3.466-9.21,11.29-6.14,11.092-8.913-9.507-4.952-12.775-7.031c-2.493-1.586-.4-7.923.891-9.8S83.352,44.261,85.332,40.5s-7.527-11.092-8.319-12.676,4.358-7.527,6.338-7.923,11.29,6.932,14.36,4.853S94.741,12.273,96.226,9.995s8.913-4.357,10.3-3.763,6.437,11.587,8.913,11.488,4.853-12.181,6.536-13.271,9.606-.5,10.795,1.485,0,13.667,2.08,14.36,10.894-7.725,12.478-7.725,8.022,4.258,8.121,6.14S148.814,30.1,150.5,32.377s13.271-1.188,14.855,0,4.655,7.23,3.763,8.715-11.29,6.536-10.993,9.606,10.6,4.655,12.379,6.833.594,8.319-1.089,9.8-13.667.4-14.459,2.575,7.923,10.1,7.923,12.676-5.051,7.428-6.833,7.824-10.679-10.826-22.085-6.635c-13.47,4.949-33.177,2.476-41.793-13.667S91.5,32.6,105.635,26.336c17.43-7.725,38.306-2.356,44.269,16.341,6.946,21.782-6.639,32.427-19.411,35.851-6.556,1.758-23.2,4.207-31.626-12.528-5.8-11.521-2.365-21.382,2.761-27.621a2.281,2.281,0,0,0-1.776-3.716H3.908" transform="translate(-3.908 -3.91)" fill="none" stroke="#2823b4" stroke-linecap="round" stroke-linejoin="round" stroke-width="2"/>
      </g>
    </g>
  </g>
</svg>
