<svg id="lightbulb-drawing" xmlns="http://www.w3.org/2000/svg" xmlns:xlink="http://www.w3.org/1999/xlink" width="283" height="118" viewBox="0 0 283 118">
  <defs>
    <clipPath id="clip-path">
      <rect id="Rectangle_1995" data-name="Rectangle 1995" width="283" height="118" transform="translate(284.835)" fill="#fff"/>
    </clipPath>
  </defs>
  <circle id="Ellipse_15" data-name="Ellipse 15" cx="39" cy="39" r="39" transform="translate(113 3.039)" fill="#ebebf6"/>
  <g id="Mask_Group_5" data-name="Mask Group 5" transform="translate(-284.835)" clip-path="url(#clip-path)">
    <g id="Group_2473" data-name="Group 2473" transform="translate(64 9.039)">
      <path id="Path_6749" data-name="Path 6749" d="M-840,101.158c.171-.025,431.061-.735,432.577.391a8.561,8.561,0,0,1,.759.563c2.03,1.492,3.963,2.934,6.654,3.032a9.674,9.674,0,0,0,4.281-.757,5.908,5.908,0,0,0,2.789-2.325c.464-.758.734-1.345.611-1.689-.147-.317-.684-.489-1.859-.44-1.15.049-4.477.147-7.852.2-2.055.049-4.11.049-5.676,0a2.966,2.966,0,0,1-2.3-1.15,1.7,1.7,0,0,1-.293-.807,1.285,1.285,0,0,1,.318-.856c.465-.514,1.468-.88,3.3-.856,2.03.049,5.773.123,9,.221,2.814.073,5.259.17,5.9.2a1.215,1.215,0,0,0,1-.416,1.485,1.485,0,0,0,.368-.587,1.2,1.2,0,0,0,.024-.587.8.8,0,0,0-.465-.563c-1.2-.637-6.287-.342-11.057-.1a73.443,73.443,0,0,1-7.877.219,2.508,2.508,0,0,1-1.884-.758,1.2,1.2,0,0,1-.245-.733,1.378,1.378,0,0,1,.245-.733,2.577,2.577,0,0,1,1.835-.979,68.094,68.094,0,0,1,11.4-.2c2.642.1,5.309.2,7.9.073a2.048,2.048,0,0,0,1.248-.415.951.951,0,0,0,.342-.44.756.756,0,0,0,0-.465,1.168,1.168,0,0,0-.538-.563c-1.566-1-13.333-.025-18.3.367-1.1.1-1.884.17-2.153.17a2.773,2.773,0,0,1-2.152-.831,1.287,1.287,0,0,1-.343-.71,1.093,1.093,0,0,1,.171-.807,3.049,3.049,0,0,1,2.177-1.052c1.052-.147,2.422-.27,3.865-.342,2.006-.1,4.061-.123,5.455-.123,1.59,0,3.963.123,6.189.221,2.373.121,4.55.219,5.382.17a2.059,2.059,0,0,0,1.223-.587,1.7,1.7,0,0,0,.367-.587.874.874,0,0,0-.049-.612,1.6,1.6,0,0,0-.832-.759c-1.321-.684-6.483-.342-10.422-.074-.514.025-1,.074-1.468.1-1.639.1-6.629.93-9.834,1.468l-.587.1a3.037,3.037,0,0,1-2.838-.758,1.441,1.441,0,0,1-.415-.782,1.46,1.46,0,0,1,.049-.856,2.38,2.38,0,0,1,1.932-1.394c2.275-.44,5.162-.93,8-1.272a52.455,52.455,0,0,1,6.483-.416c1.076.025,2.52.2,3.963.367,2.862.319,5.822.684,5.969.025.147-.588-.783-.856-2.08-1.224-3.033-.856-7.755-2.226-7.9-9.736a217.966,217.966,0,0,1,1.224-23.534c.661-6.557,1.566-12.11,2.569-13.969-1.052-.441-2.177-.978-3.279-1.565a28.6,28.6,0,0,1-3.2-1.958,14.616,14.616,0,0,1-2.5,1.933,18.478,18.478,0,0,1-4.917,2.25l-.049.025a212.2,212.2,0,0,1,3.914,22.189c1.394,10.616,2.177,20.256,1.786,21.331-.783,2.006-2.422,2.447-4.82,3.107-.514.123-1.076.27-1.688.465-.636.2-1.174.367-1.663.514-2.324.759-3.694,1.2-4.722.27-.758-.686-.782-1.713-.88-3.621-.049-1.272-.123-2.962-.416-5.235-.783-5.7-3.939-11.914-7.192-18.373-4.82-9.54-9.908-19.57-8.146-29.429a29.8,29.8,0,0,1,7.853-15.266,28.712,28.712,0,0,1,14.874-7.9c9.2-1.884,17.931-.881,24.732,2.789a25.266,25.266,0,0,1,12.991,17.516,34.894,34.894,0,0,1-.171,16.806c-1.346,5.015-3.792,9.786-6.948,15.217a66.26,66.26,0,0,0-6.7,15.436c-1.1,4.16-1.346,7.8-.2,10.105a3.914,3.914,0,0,0,2.2,1.368,13.054,13.054,0,0,0,4.036.612l145.555-.407v.733l-145.555.409a14.339,14.339,0,0,1-4.256-.637,4.668,4.668,0,0,1-2.642-1.736c-1.224-2.5-1-6.312.147-10.643a67.723,67.723,0,0,1,6.776-15.607c3.132-5.382,5.553-10.1,6.875-15.045a34.611,34.611,0,0,0,.171-16.439A24.577,24.577,0,0,0-384.5,4.356c-6.654-3.572-15.216-4.549-24.243-2.69A27.659,27.659,0,0,0-423.25,9.347a28.816,28.816,0,0,0-7.632,14.873c-1.737,9.615,3.3,19.546,8.048,28.989,3.3,6.484,6.458,12.771,7.266,18.593a50.026,50.026,0,0,1,.44,5.308c.073,1.713.122,2.643.636,3.107.71.637,1.933.244,4.012-.415.514-.172,1.1-.367,1.664-.539.611-.17,1.2-.342,1.712-.463,2.2-.588,3.694-.979,4.33-2.667.367-.979-.44-10.471-1.835-20.965a202.658,202.658,0,0,0-3.89-22.115,6.433,6.433,0,0,1-3.768-.147A3.167,3.167,0,0,1-414,31.217a4.521,4.521,0,0,1,.024-4.037,2.229,2.229,0,0,1,1.15-.929v.024a1.958,1.958,0,0,1,1.541.2c1.125.588,2.373,2.3,3.327,5.7l.024-.025a17.815,17.815,0,0,0,4.721-2.153,16.108,16.108,0,0,0,2.3-1.736,7.7,7.7,0,0,1-1.957-1.957,1.842,1.842,0,0,1,.2-2.251,2.731,2.731,0,0,1,1.59-.881,2.363,2.363,0,0,1,1.786.27,2.232,2.232,0,0,1,.783,2.4,5,5,0,0,1-1.3,2.324,31.361,31.361,0,0,0,3.058,1.834c1.1.588,2.25,1.15,3.327,1.591,2.154-3.083,3.792-4.4,4.918-4.672a1.6,1.6,0,0,1,1.981,1.052,4.249,4.249,0,0,1,0,2.592,3.531,3.531,0,0,1-3.058,2.813,10.5,10.5,0,0,1-3.572-.905c-.954,1.615-1.859,7.168-2.544,13.773a216.047,216.047,0,0,0-1.2,23.436c.147,7,4.551,8.244,7.364,9.052,1.712.489,2.911.831,2.617,2.1-.318,1.3-3.621.905-6.776.514-1.444-.147-2.862-.319-3.89-.342a51.935,51.935,0,0,0-6.409.415c-2.813.318-5.676.807-7.926,1.273a1.686,1.686,0,0,0-1.394.905.759.759,0,0,0-.024.465.879.879,0,0,0,.245.44,2.357,2.357,0,0,0,2.177.514l.587-.1c3.229-.538,8.22-1.37,9.932-1.468.44-.024.93-.049,1.443-.1,4.037-.27,9.3-.612,10.813.147a2.5,2.5,0,0,1,1.174,1.126,1.69,1.69,0,0,1,.049,1.1,1.955,1.955,0,0,1-.538.905,2.752,2.752,0,0,1-1.688.807c-.856.049-3.058-.049-5.455-.172-2.2-.1-4.55-.219-6.165-.219-1.394,0-3.474.024-5.431.121-1.394.074-2.74.2-3.792.342a2.435,2.435,0,0,0-1.663.709.849.849,0,0,0-.073.319.9.9,0,0,0,.171.342,2.122,2.122,0,0,0,1.614.563c.2,0,.979-.074,2.1-.172,5.039-.391,16.978-1.369,18.739-.244a1.849,1.849,0,0,1,.832.93,1.288,1.288,0,0,1,0,.954,1.819,1.819,0,0,1-.563.758,2.694,2.694,0,0,1-1.688.587c-2.617.121-5.284.023-7.95-.1a71.836,71.836,0,0,0-11.278.2,1.841,1.841,0,0,0-1.321.685.578.578,0,0,0-.122.318.469.469,0,0,0,.1.293,1.941,1.941,0,0,0,1.346.489c1.639.1,4.648-.049,7.8-.219,4.844-.27,10.054-.563,11.424.147a1.52,1.52,0,0,1,.832,1.052,2.009,2.009,0,0,1-.049,1,2.479,2.479,0,0,1-.513.831,1.972,1.972,0,0,1-1.59.661c-.661-.049-3.082-.121-5.871-.2-3.229-.1-6.972-.2-9-.219-1.566-.025-2.4.244-2.715.61a.483.483,0,0,0-.147.344.834.834,0,0,0,.172.415,2.194,2.194,0,0,0,1.712.856c1.542.025,3.6.025,5.651,0,3.327-.073,6.678-.17,7.828-.219,1.542-.049,2.3.268,2.544.905.245.587-.049,1.394-.661,2.348a6.757,6.757,0,0,1-3.106,2.618,10.742,10.742,0,0,1-4.6.807c-2.935-.1-4.942-1.615-7.07-3.181-.2-.17-.44-.342-.734-.563-1.321-.978-431.99-.268-432.161-.268ZM-388.34,27.646c-.978.221-2.422,1.394-4.4,4.207a9.051,9.051,0,0,0,3.107.784,2.8,2.8,0,0,0,2.4-2.275,3.335,3.335,0,0,0,.024-2.129.887.887,0,0,0-1.125-.587m-13.9-1.713a6.572,6.572,0,0,0,1.81,1.786,3.991,3.991,0,0,0,1.174-1.981c.147-.905-.073-1.419-.465-1.688a1.592,1.592,0,0,0-1.223-.171,2.128,2.128,0,0,0-1.174.635,1.158,1.158,0,0,0-.123,1.419M-412,32.245a6,6,0,0,0,3.327.1c-.881-3.156-1.982-4.721-2.96-5.234a1.314,1.314,0,0,0-.978-.147,1.459,1.459,0,0,0-.734.611,3.715,3.715,0,0,0,.024,3.352A2.415,2.415,0,0,0-412,32.245" transform="translate(775.999 -0.002)" fill="#0a058b"/>
    </g>
  </g>
</svg>
