<svg id="Component_16_1" data-name="Component 16 – 1" xmlns="http://www.w3.org/2000/svg" xmlns:xlink="http://www.w3.org/1999/xlink" width="82" height="70" viewBox="0 0 82 70">
  <defs>
    <clipPath id="clip-path">
      <rect id="Rectangle_1996" data-name="Rectangle 1996" width="82" height="70" transform="translate(1309 8585)" fill="#fff" stroke="#707070" stroke-width="1"/>
    </clipPath>
    <clipPath id="clip-path-2">
      <rect id="Rectangle_1994" data-name="Rectangle 1994" width="143.577" height="98.711" fill="#2823b4"/>
    </clipPath>
  </defs>
  <g id="Mask_Group_6" data-name="Mask Group 6" transform="translate(-1309 -8585)" clip-path="url(#clip-path)">
    <g id="Group_2611" data-name="Group 2611" transform="translate(1251.284 8563.743) rotate(14)">
      <g id="Group_2610" data-name="Group 2610" clip-path="url(#clip-path-2)">
        <path id="Path_6958" data-name="Path 6958" d="M107.138,27.9a.655.655,0,0,1,.017-.644.223.223,0,0,1,.407.027l5.118,8.746c.845,1.443.845,1.443,5.934-4.748,2.594-3.155,6.487-7.891,10.573-12.9,3.946-4.839,7.869-9.689,10.425-12.953A49.65,49.65,0,0,0,143.089.8c-.123-.194-1.692.724-4.683,2.573-3.482,2.152-8.779,5.547-13.873,8.946-4.019,2.68-7.925,5.372-10.737,7.47-6.261,4.672-6.966,6.3-7.569,7.69l-.011.027c-.315.727-.613,1.4-.876,1.942a6.609,6.609,0,0,1-.707,1.226c-.354.419-.594.409-.822-.3a15.717,15.717,0,0,1-.381-2.272c-.145-1.148-.333-2.767-.459-4.381a28.915,28.915,0,0,1-.085-4.424c.226-2.458,1.072-2.817,7.316-5.465l.555-.235c3.85-1.633,9.607-4.1,14.879-6.4,3.85-1.679,7.482-3.287,10.007-4.456,2.77-1.282,4.19-1.669,4.156-1.769-.019-.056-1.537.211-4.462.757-3.287.614-8.111,1.606-13.1,2.631-4.518.929-9.166,1.884-12.747,2.579-3.194.619-5.76,1.076-7.782,1.436a56.34,56.34,0,0,0-5.7,1.163c-.814.255-1.207.471-1.24.7-.031.213.263.631.825,1.276.627.72,1.527,1.61,2.444,2.516,1.056,1.044,2.133,2.11,2.836,2.946,1.37,1.633,1.445,2.486,1.621,4.489l.036.4A29.418,29.418,0,0,1,101.9,32a36.4,36.4,0,0,1-3.241,8.7,19.973,19.973,0,0,1-4.649,5.977A14.229,14.229,0,0,1,87.8,49.6a12.034,12.034,0,0,1-3.626.2,38.887,38.887,0,0,1-2.087,6.715,29.637,29.637,0,0,1-4.574,7.833,17.215,17.215,0,0,1-6.543,4.829,11.486,11.486,0,0,1-2.909.769,22.578,22.578,0,0,1-1.49,2.672,22.17,22.17,0,0,1-7.351,7.1A26.578,26.578,0,0,1,47.676,83a22.477,22.477,0,0,1-7.4-.7,33.493,33.493,0,0,1-10.509,7.776C22.3,93.764,11.712,96.384.285,98.712H0v-.861C11.481,95.517,22.12,92.9,29.6,89.2A33.556,33.556,0,0,0,39.5,82.042a10.569,10.569,0,0,1-2.245-1.078A7.523,7.523,0,0,1,34.139,76.9a8.492,8.492,0,0,1-.4-2.471,8.967,8.967,0,0,1,.286-2.392,6.771,6.771,0,0,1,2.139-3.577,4.5,4.5,0,0,1,2.322-.963,5.1,5.1,0,0,1,3.282.779,5.49,5.49,0,0,1,2.28,2.988,6.543,6.543,0,0,1,.3,1.716c.11,2.4-.982,5.466-3.446,8.558a22.742,22.742,0,0,0,6.751.547,26.166,26.166,0,0,0,11.362-3.226,21.543,21.543,0,0,0,7.147-6.9A22.222,22.222,0,0,0,67.3,70a5.722,5.722,0,0,1-2.7-.508,4.614,4.614,0,0,1-2.154-2.335,6.6,6.6,0,0,1-.521-2.021,7.178,7.178,0,0,1,.1-2.085,5.249,5.249,0,0,1,1.175-2.5,3.8,3.8,0,0,1,2.368-1.225,3.493,3.493,0,0,1,2.052.376,3.6,3.6,0,0,1,1.584,1.761,5.566,5.566,0,0,1,.446,2.015,13.555,13.555,0,0,1-1.167,5.494,11.575,11.575,0,0,0,2.338-.677,16.674,16.674,0,0,0,6.342-4.675,28.763,28.763,0,0,0,4.434-7.6,37.875,37.875,0,0,0,1.982-6.3,5.582,5.582,0,0,1-1.8-.617,3.25,3.25,0,0,1-1.467-1.756,3.964,3.964,0,0,1-.219-1.234,4.84,4.84,0,0,1,.128-1.213A4.55,4.55,0,0,1,81.5,42.587a1.68,1.68,0,0,1,1.461-.482,1.469,1.469,0,0,1,.753.447,2.825,2.825,0,0,1,.582,1.009,8.677,8.677,0,0,1,.281,3.574c-.048.543-.128,1.138-.239,1.774a11.8,11.8,0,0,0,3.382-.208,13.783,13.783,0,0,0,6.024-2.833,19.255,19.255,0,0,0,4.475-5.759,35.254,35.254,0,0,0,3.139-8.426,28.159,28.159,0,0,0,.6-9.693l-.035-.4a5.47,5.47,0,0,0-1.4-3.887c-.7-.835-1.758-1.88-2.793-2.9-.938-.927-1.859-1.838-2.477-2.548-.763-.876-1.144-1.561-1.048-2.217.093-.638.627-1.06,1.692-1.394a56.488,56.488,0,0,1,5.746-1.174c1.985-.354,4.5-.8,7.775-1.436,3.8-.738,8.336-1.67,12.742-2.575,5.046-1.037,9.928-2.041,13.1-2.634s4.873-.765,5.037-.28c.218.643-1.273,1.576-4.5,3.07-2.515,1.164-6.153,2.776-10.016,4.46-5.369,2.342-11.1,4.793-14.884,6.4l-.555.236c-5.92,2.51-6.722,2.85-6.893,4.712a27.636,27.636,0,0,0,.087,4.185c.124,1.584.309,3.18.453,4.313a17.512,17.512,0,0,0,.316,2,6.64,6.64,0,0,0,.569-1.02c.254-.525.547-1.186.858-1.9l.011-.027c.644-1.486,1.4-3.223,7.8-8,2.805-2.093,6.722-4.791,10.759-7.484,5.123-3.417,10.421-6.814,13.887-8.956C141.419.532,143.15-.394,143.5.158c.417.662-.8,2.5-3.521,5.978-2.551,3.258-6.48,8.115-10.434,12.963-3.814,4.677-7.87,9.611-10.575,12.9-5.508,6.7-5.508,6.7-6.711,4.645ZM81.986,48.242a5.3,5.3,0,0,0,1.772.59c.119-.656.2-1.269.252-1.822a7.37,7.37,0,0,0-.213-3,1.966,1.966,0,0,0-.4-.7,1,1,0,0,0-.511-.3,1.275,1.275,0,0,0-1.1.375,3.6,3.6,0,0,0-1.016,1.827,3.465,3.465,0,0,0-.095.867,2.635,2.635,0,0,0,.147.82,2.53,2.53,0,0,0,1.163,1.346M64.779,68.624a5.637,5.637,0,0,0,2.975.442,12.852,12.852,0,0,0,1.324-5.526,4.315,4.315,0,0,0-.342-1.556v0a2.923,2.923,0,0,0-1.3-1.42,3.106,3.106,0,0,0-1.826-.329,3.325,3.325,0,0,0-2.08,1.061,4.257,4.257,0,0,0-.953,2.03A5.778,5.778,0,0,0,62.5,65a5.353,5.353,0,0,0,.424,1.639,3.939,3.939,0,0,0,1.853,1.986m-27.3,11.5a10.7,10.7,0,0,0,2.66,1.2c2.591-3.059,3.741-6.035,3.639-8.278a5.221,5.221,0,0,0-.242-1.367,4.758,4.758,0,0,0-5.007-3.271,4.067,4.067,0,0,0-2.1.867,5.892,5.892,0,0,0-1.868,3.111,7.6,7.6,0,0,0-.243,2.025,7.157,7.157,0,0,0,.339,2.079,6.761,6.761,0,0,0,2.823,3.633" transform="translate(0 0)" fill="#2823b4" fill-rule="evenodd"/>
      </g>
    </g>
  </g>
</svg>
