<svg id="problem" xmlns="http://www.w3.org/2000/svg" width="88.701" height="78" viewBox="0 0 88.701 78">
  <circle id="Ellipse_14" data-name="Ellipse 14" cx="39" cy="39" r="39" fill="#ebebf6"/>
  <path id="Path_6883" data-name="Path 6883" d="M26.791,55.471a.456.456,0,0,1-.018-.911c13.119-.535,26.685-1.088,40-2.954a157.548,157.548,0,0,0,19.547-3.892c5.528-1.5,13.352-4.111,17.456-9.407,1.776-2.292,2.277-4.59,1.487-6.83-1.414-4.011-6.833-7.286-11.656-8.573a8.065,8.065,0,0,1-1.84,2.566,18.131,18.131,0,0,1-5.036,3.074,126.634,126.634,0,0,1-28.568,9.423A92.638,92.638,0,0,1,28.3,39.137a11.1,11.1,0,0,1-4.382-1.261,4.376,4.376,0,0,1-2.287-4.061c.241-2.181,2.367-3.451,4.192-4.314a106.059,106.059,0,0,1,16.115-6.056q2.313-.662,4.659-1.22a8.79,8.79,0,0,1,3.874-3.883A52.637,52.637,0,0,1,73.8,12.334a40.671,40.671,0,0,1,12.07,1.457c.29.083.606.174.94.274,2.248-2.8,3.853-6.78,1.552-9.635a9.614,9.614,0,0,0-6.2-3.212,33.706,33.706,0,0,0-7.424-.194A80.745,80.745,0,0,0,54.093,5a.456.456,0,1,1-.306-.859A81.74,81.74,0,0,1,74.678.114,34.488,34.488,0,0,1,82.306.32a10.475,10.475,0,0,1,6.761,3.539c2.561,3.178,1.013,7.438-1.333,10.5,2.753.91,6.126,2.484,6.4,5.622a5.643,5.643,0,0,1-.217,2.066,24.872,24.872,0,0,1,6.926,3.116,12.722,12.722,0,0,1,5.275,6.013c.9,2.55.352,5.138-1.626,7.691-4.272,5.512-12.283,8.192-17.938,9.729A158.481,158.481,0,0,1,66.9,52.509c-13.361,1.872-26.95,2.426-40.091,2.962h-.019M46.319,23.229q-2.076.5-4.128,1.091a105.153,105.153,0,0,0-15.976,6c-1.611.762-3.485,1.858-3.676,3.59A3.55,3.55,0,0,0,24.393,37.1a10.35,10.35,0,0,0,4.028,1.136,91.744,91.744,0,0,0,29.567-1.16A125.73,125.73,0,0,0,86.35,27.717a17.385,17.385,0,0,0,4.791-2.908,7.22,7.22,0,0,0,1.567-2.125A93.175,93.175,0,0,0,80.46,20.678,37.692,37.692,0,0,1,74.8,23.523a52.7,52.7,0,0,1-14.306,3.409l-.611.062c-3.325.339-7.093.723-10.428-.23-2.423-.692-3.047-1.945-3.143-2.875a2.878,2.878,0,0,1,.01-.66M47.3,23a2.19,2.19,0,0,0-.083.8c.1.945.935,1.649,2.487,2.092,3.167.9,6.843.53,10.086.2l.612-.062a48.431,48.431,0,0,0,18.506-5.484,101.189,101.189,0,0,0-19.876.4A106.364,106.364,0,0,0,47.3,23m27.5-9.761q-.492,0-.989.01a51.721,51.721,0,0,0-22.917,5.9,8.068,8.068,0,0,0-3.133,2.806,107.2,107.2,0,0,1,11.159-1.915,101.77,101.77,0,0,1,21.319-.3,28.229,28.229,0,0,0,5.914-4.918l-.543-.157A39.2,39.2,0,0,0,74.8,13.235m6.877,6.652a93.832,93.832,0,0,1,11.358,1.938,4.75,4.75,0,0,0,.192-1.765c-.241-2.717-3.533-4.123-6.115-4.945l-.152.174a28.562,28.562,0,0,1-5.284,4.6" transform="translate(-18.349 11.529)" fill="#706eaf" stroke="#706eaf" stroke-width="1"/>
</svg>
